<svg width="128" height="128" viewBox="0 0 128 128" xmlns="http://www.w3.org/2000/svg" xmlns:xlink="http://www.w3.org/1999/xlink"><defs><linearGradient id="a" x1="4.81" x2="119.35" y1="123.19" y2="8.65" gradientUnits="userSpaceOnUse"><stop stop-color="#478cbf" offset="0"/><stop stop-color="#86dbff" offset="1"/></linearGradient></defs><g style="fill:url(#a)"><path d="M119.35,39.36,92.67,7.59a11.33,11.33,0,0,0-9.82-5.67H45.15a11.33,11.33,0,0,0-9.82,5.67L8.65,39.36a11.33,11.33,0,0,0,0,11.34L35.33,82.47a11.33,11.33,0,0,0,9.82,5.67H82.85a11.33,11.33,0,0,0,9.82-5.67l26.68-31.77a11.33,11.33,0,0,0,0-11.34ZM85.2,10.17a5.67,5.67,0,0,1,4.91,2.83l10,15.84H27.93l10-15.84a5.67,5.67,0,0,1,4.91-2.83ZM37.93,79.64a5.67,5.67,0,0,1-4.91-2.83L12.06,49.27H50.53Zm52.21-30.37H74.93v-8h15.21Zm-37-8H53.14v8h15.21Zm-18-15,4.91-2.84a5.67,5.67,0,0,1,4.91,2.84l10,15.83H40.27ZM74.93,33.42H53.14v-8H74.93Zm-2.35,30.37H55.49v-8H72.58Zm18,15.85,10-15.85h13.1L90.28,76.81a5.67,5.67,0,0,1-4.91,2.83Z" style="fill:url(#a)"/><path d="M125.68,103.85a10.42,10.42,0,0,1-9.17,5.25H95.33V98.42h11.18Zm-123.36,0v10.68H11.14a10.42,10.42,0,0,1-9.17-5.25Z" style="fill:url(#a)"/><path d="M2.32,103.85a10.42,10.42,0,0,0,9.17,5.25H32.67V98.42H21.49Z" style:="fill:url(#a)"/><path d="M95.33,109.1v10.68h21.18a10.42,10.42,0,0,0,9.17-5.25Z" style:="fill:url(#a)"/><path d="M32.67,98.42v21.36H95.33V98.42Z" style:="fill:url(#a)"/></g></svg>